<?xml version="1.0" standalone="no"?>
<!DOCTYPE svg PUBLIC "-//W3C//DTD SVG 20010904//EN"
 "http://www.w3.org/TR/2001/REC-SVG-20010904/DTD/svg10.dtd">
<svg version="1.0" xmlns="http://www.w3.org/2000/svg"
 width="380.000000pt" height="380.000000pt" viewBox="0 0 380.000000 380.000000"
 preserveAspectRatio="xMidYMid meet">
<metadata>
Created by potrace 1.11, written by Peter Selinger 2001-2013
</metadata>
<g transform="translate(0.000000,380.000000) scale(0.100000,-0.100000)"
fill="#000000" stroke="none">
<path d="M1655 2191 c-6 -5 -18 -11 -27 -13 -14 -3 -13 -7 7 -33 22 -27 30
-29 90 -30 69 -1 77 5 47 41 -31 39 -94 57 -117 35z"/>
<path d="M1575 2108 c-16 -6 -48 -23 -70 -38 -22 -15 -74 -46 -115 -69 -41
-24 -92 -53 -112 -65 -31 -18 -51 -22 -108 -20 -38 1 -70 -1 -70 -4 0 -3 31
-46 69 -96 l70 -91 229 -3 229 -3 127 125 c70 69 132 126 139 126 6 0 70 -58
142 -129 l130 -130 163 -3 c89 -2 162 -1 162 2 0 3 -51 31 -114 63 -79 40
-122 68 -140 92 -23 30 -33 35 -68 35 -30 0 -67 14 -142 54 -245 130 -287 149
-299 137 -6 -6 -43 -11 -84 -11 -62 0 -75 3 -85 20 -14 23 -12 22 -53 8z"/>
<path d="M1828 1803 c-109 -107 -127 -130 -122 -150 4 -13 9 -25 13 -27 4 -3
43 -6 86 -7 l80 -2 3 37 c2 21 -2 44 -8 51 -16 19 13 26 126 30 49 1 91 3 92
4 2 0 -10 19 -27 40 -17 21 -31 45 -31 53 0 8 -19 33 -43 56 l-42 41 -127
-126z"/>
<path d="M1022 1754 c-39 -65 -60 -110 -54 -116 5 -5 47 -8 93 -6 67 2 84 6
84 18 0 9 -8 14 -20 13 -119 -11 -137 -2 -89 42 19 18 30 22 39 15 9 -7 29 -7
65 1 52 11 52 11 32 31 -18 19 -21 19 -51 4 -30 -16 -31 -16 -31 4 0 11 9 25
19 32 19 11 19 13 3 40 -9 15 -19 28 -22 28 -3 0 -34 -48 -68 -106z"/>
<path d="M898 1710 c-51 -28 -60 -45 -18 -37 18 4 36 7 40 7 4 0 15 11 24 25
20 31 7 32 -46 5z"/>
<path d="M1271 1681 c-77 -6 -103 -23 -59 -40 26 -10 149 0 148 12 0 4 0 14 0
22 0 8 -3 14 -7 13 -5 -1 -41 -4 -82 -7z"/>
<path d="M1417 1666 c3 -16 13 -26 29 -29 21 -4 24 0 24 24 0 25 -4 29 -29 29
-24 0 -28 -3 -24 -24z"/>
<path d="M1522 1668 c3 -26 37 -36 100 -30 32 4 38 8 38 28 0 23 -3 24 -71 24
-67 0 -70 -1 -67 -22z"/>
<path d="M1938 1678 c-8 -23 4 -58 21 -59 29 -3 116 2 133 7 19 6 30 28 22 49
-8 19 -170 22 -176 3z"/>
<path d="M2170 1672 c0 -21 24 -52 41 -52 5 0 9 9 9 20 0 15 7 20 24 20 14 0
28 5 31 10 4 6 -7 10 -27 10 -18 0 -43 3 -55 6 -18 5 -23 2 -23 -14z"/>
<path d="M1214 1578 c-21 -4 -84 -10 -139 -13 -55 -3 -129 -8 -165 -11 -88 -8
-77 -8 -232 0 -76 4 -138 5 -138 2 0 -2 17 -31 38 -63 21 -32 56 -88 78 -125
l39 -66 575 1 c413 1 578 4 585 12 6 7 74 69 153 140 78 70 142 129 142 131 0
2 -21 1 -47 -2 -40 -5 -589 -5 -794 0 -31 0 -74 -2 -95 -6z"/>
<path d="M2255 1534 c22 -20 82 -75 134 -123 132 -121 132 -121 224 -121 50 0
76 -4 72 -10 -4 -6 -11 -8 -16 -5 -5 4 -9 -1 -9 -9 0 -10 9 -16 25 -16 16 0
25 -6 25 -15 0 -8 -3 -15 -7 -16 -5 0 -25 -2 -45 -4 -34 -4 -37 -2 -40 23 -2
21 -9 28 -30 30 -23 3 -27 -1 -30 -25 -4 -36 -43 -41 -43 -5 -1 21 -14 33 -64
58 -7 4 -17 1 -21 -6 -4 -7 -9 -8 -11 -2 -2 6 -13 12 -24 14 -17 3 -20 -3 -20
-39 0 -44 -15 -70 -34 -59 -6 4 -11 27 -11 52 l0 44 -55 0 c-51 0 -69 -10 -45
-25 16 -10 12 -55 -5 -55 -8 0 -15 9 -15 20 0 13 -5 18 -15 14 -9 -4 -15 0
-15 10 0 10 6 13 15 10 10 -4 13 -2 10 8 -4 11 -25 16 -73 18 -37 1 -72 3 -79
3 -18 1 -4 23 23 36 17 7 64 9 137 6 129 -6 158 3 107 33 -18 12 -40 38 -51
61 -16 37 -84 111 -101 111 -5 0 -99 -83 -247 -217 -22 -21 -32 -37 -28 -47
10 -26 36 -31 52 -10 11 15 16 17 26 7 20 -20 29 -16 29 12 0 14 4 25 8 25 5
0 14 -11 20 -25 6 -14 16 -25 22 -25 5 0 10 -11 10 -25 0 -16 -6 -25 -15 -25
-8 0 -15 6 -15 14 0 21 -32 30 -43 11 -6 -12 -17 -14 -43 -9 -27 5 -34 3 -34
-10 0 -9 -6 -16 -13 -16 -19 0 -37 21 -37 45 0 19 -6 20 -113 19 -140 -1 -133
1 -132 -31 0 -39 -28 -37 -35 2 -4 25 -10 30 -38 33 -30 3 -32 1 -32 -28 0
-21 -4 -30 -12 -27 -7 2 -12 16 -11 31 1 15 -3 26 -10 26 -19 -1 -47 -26 -47
-42 0 -16 -34 -31 -44 -20 -3 3 -6 14 -6 24 0 13 -8 18 -30 18 -27 0 -29 -2
-20 -25 12 -31 0 -38 -37 -24 -15 6 -22 13 -15 16 18 7 14 33 -5 33 -10 0 -29
3 -42 7 -22 5 -22 4 -11 -17 8 -15 9 -25 2 -32 -17 -17 -41 -2 -35 21 3 12 1
21 -5 21 -6 0 -18 3 -27 6 -14 6 -16 2 -13 -22 3 -30 -16 -42 -49 -30 -12 5
-13 9 -3 21 16 19 4 35 -27 35 -24 0 -25 -2 -19 -40 5 -35 4 -40 -13 -40 -11
0 -23 5 -26 10 -3 6 -17 10 -31 10 -13 0 -24 5 -24 10 0 6 11 10 25 10 16 0
25 6 25 15 0 8 -3 15 -7 16 -5 0 -38 3 -75 5 l-68 5 0 -36 c0 -28 -4 -35 -20
-35 -16 0 -20 7 -20 30 0 18 -5 30 -13 30 -9 0 -12 -9 -9 -29 3 -22 -1 -32
-17 -41 -33 -17 -61 -4 -61 30 0 42 -26 52 -115 44 -70 -6 -75 -8 -75 -30 0
-34 36 -41 60 -12 l19 23 9 -25 c11 -28 -9 -53 -34 -43 -8 3 -22 1 -32 -3 -9
-4 -37 -9 -62 -10 -25 -1 -61 -5 -80 -9 -39 -7 -140 -47 -139 -55 0 -3 23 -24
50 -47 54 -47 33 -44 224 -24 50 6 196 11 325 12 927 7 961 6 943 -12 -4 -4
-25 -9 -46 -11 -39 -2 -45 -14 -31 -65 5 -18 9 -20 24 -11 18 12 50 5 50 -11
0 -5 -10 -11 -21 -14 -19 -5 -21 -11 -17 -56 5 -48 4 -51 -17 -51 -13 0 -26
-8 -29 -17 -6 -15 -10 -12 -28 15 -11 17 -28 32 -38 32 -11 0 -22 5 -25 10 -4
6 -15 8 -25 5 -11 -3 -20 1 -24 11 -6 15 -8 16 -24 0 -10 -9 -24 -16 -31 -16
-18 0 -9 -21 15 -34 10 -6 21 -12 23 -14 6 -3 -31 -31 -41 -32 -5 0 -8 9 -8
20 0 11 -7 20 -15 20 -9 0 -26 7 -39 15 -21 14 -25 14 -48 -5 -14 -10 -28 -17
-31 -13 -4 3 -9 -2 -13 -11 -3 -9 -15 -16 -26 -16 -14 0 -18 -5 -14 -15 6 -17
-9 -21 -19 -5 -9 15 -42 12 -49 -5 -3 -8 -12 -12 -20 -9 -9 3 -26 -5 -39 -18
-45 -43 -67 -58 -86 -58 -10 0 -22 -7 -25 -16 -5 -13 -9 -14 -21 -4 -8 7 -15
8 -15 3 0 -5 -11 -16 -25 -23 -16 -8 -23 -20 -20 -29 10 -35 -10 -44 -102 -45
-83 -1 -88 -2 -91 -23 -2 -13 -6 -23 -10 -24 -31 -3 -48 -10 -58 -23 -18 -25
-25 -19 -22 22 2 27 -1 37 -12 37 -8 0 -14 -7 -14 -16 1 -18 -29 -15 -54 4
-11 9 -16 3 -13 -16 1 -5 -3 -6 -9 -2 -6 3 -8 11 -5 16 4 5 -1 9 -9 9 -9 0
-16 5 -16 12 0 8 -6 7 -16 -4 -19 -19 -11 -38 16 -38 10 0 22 -5 25 -10 4 -6
10 -8 14 -5 5 2 14 -8 21 -23 16 -34 22 -82 11 -82 -9 0 -39 31 -40 43 -1 4
-1 15 -2 25 0 10 -3 12 -6 4 -2 -6 -9 -10 -14 -6 -5 3 -9 -2 -9 -10 0 -8 5
-18 10 -21 13 -8 13 -55 1 -55 -10 0 -23 31 -20 46 1 5 -1 17 -6 27 -4 10 -2
24 6 33 11 13 9 14 -14 9 -26 -7 -27 -5 -27 29 0 29 7 44 35 69 26 24 32 36
25 47 -5 8 -10 11 -10 7 0 -4 -9 1 -21 11 -17 16 -24 18 -45 8 -13 -6 -24 -16
-24 -22 0 -12 -36 -27 -58 -24 -9 1 -13 -8 -10 -27 3 -26 0 -28 -29 -27 -23 1
-30 -2 -26 -12 3 -8 0 -14 -7 -14 -6 0 -14 9 -17 20 -3 11 -10 17 -15 14 -5
-3 -16 3 -24 14 -21 31 -63 37 -81 12 -14 -19 -52 -27 -66 -13 -4 3 0 17 8 29
14 21 13 25 -10 48 l-25 25 -6 -27 c-4 -15 -12 -30 -18 -34 -6 -4 -4 -9 7 -14
9 -3 17 -15 17 -25 0 -21 -10 -25 -26 -9 -14 14 -56 0 -50 -16 4 -10 -3 -14
-20 -14 -14 0 -22 4 -19 10 3 6 -1 7 -9 4 -14 -5 -16 -42 -16 -280 l0 -274
1900 0 1900 0 0 646 c0 546 -2 648 -14 660 -20 20 -31 18 -50 -11 -19 -29 -21
-56 -4 -73 9 -9 7 -12 -10 -12 -13 0 -22 -6 -22 -15 0 -8 5 -15 10 -15 6 0 10
-7 10 -15 0 -9 -9 -15 -25 -15 -15 0 -31 -9 -41 -25 -9 -14 -20 -22 -25 -19
-5 3 -7 9 -4 14 3 4 -2 13 -10 20 -17 14 -48 5 -43 -12 3 -7 -4 -20 -15 -29
-13 -10 -21 -29 -21 -52 -2 -49 -14 -59 -54 -48 -20 6 -30 6 -27 0 4 -5 -4 -9
-17 -10 -13 0 -35 -3 -50 -5 -17 -3 -28 0 -28 6 0 7 6 10 12 8 15 -5 43 20 34
29 -3 3 -61 27 -128 53 -196 75 -210 81 -204 96 3 7 1 16 -4 19 -4 3 -11 -1
-13 -7 -4 -8 -6 -7 -6 4 -1 9 4 20 9 23 7 4 6 13 -1 27 -7 12 -7 18 -1 14 12
-7 42 3 42 15 0 5 -26 25 -57 45 -32 20 -60 40 -63 43 -3 4 -18 15 -34 25 -20
13 -25 20 -16 26 7 4 9 16 5 29 -8 27 -25 27 -25 1 0 -29 -16 -25 -36 9 -10
17 -21 28 -26 25 -4 -3 -8 1 -8 9 0 24 -22 35 -89 41 -34 4 -77 14 -94 23 -26
13 -72 17 -237 20 l-205 3 40 -36z m-235 -173 c0 -6 -4 -13 -10 -16 -5 -3 -10
1 -10 9 0 9 5 16 10 16 6 0 10 -4 10 -9z m635 -31 c3 -5 1 -10 -4 -10 -6 0
-11 5 -11 10 0 6 2 10 4 10 3 0 8 -4 11 -10z m-532 -77 c-7 -2 -21 -2 -30 0
-10 3 -4 5 12 5 17 0 24 -2 18 -5z m782 -13 c3 -5 1 -10 -4 -10 -6 0 -11 5
-11 10 0 6 2 10 4 10 3 0 8 -4 11 -10z m-2215 -40 c0 -5 -10 -10 -22 -10 -19
0 -20 2 -8 10 19 13 30 13 30 0z m2350 -12 c0 -6 -6 -5 -15 2 -8 7 -15 14 -15
16 0 2 7 1 15 -2 8 -4 15 -11 15 -16z m-450 -68 c0 -5 -2 -10 -4 -10 -3 0 -8
5 -11 10 -3 6 -1 10 4 10 6 0 11 -4 11 -10z m1070 -65 c0 -8 6 -15 14 -15 9 0
12 -7 9 -21 -4 -12 -11 -18 -20 -15 -8 3 -17 6 -19 6 -2 0 -4 14 -4 30 0 17 5
30 10 30 6 0 10 -7 10 -15z m-1750 -16 c12 -8 10 -9 -9 -4 -17 5 -21 4 -16 -5
5 -8 3 -11 -6 -8 -8 3 -22 1 -31 -4 -14 -7 -18 -5 -18 8 0 9 6 14 13 11 8 -3
20 -1 28 4 18 11 21 11 39 -2z m571 -50 c-3 -52 -16 -83 -30 -74 -4 2 -6 25
-5 50 l3 45 -57 2 c-31 1 -83 2 -114 1 -32 0 -58 3 -58 8 0 13 36 20 64 13 14
-3 26 -2 26 2 0 5 39 9 88 8 l87 0 -4 -55z m1108 35 c3 -16 1 -17 -13 -5 -19
16 -21 34 -3 29 6 -3 14 -13 16 -24z m-1577 10 c8 -8 -3 -44 -13 -44 -5 0 -9
7 -9 15 0 7 -8 19 -17 24 -16 9 -15 10 8 11 14 0 28 -3 31 -6z m158 -4 c22 -7
20 -8 -15 -9 -22 0 -47 4 -55 9 -11 7 -8 9 15 9 17 -1 41 -5 55 -9z m548 -7
c2 -9 -9 -13 -37 -13 -39 0 -57 10 -44 24 12 11 76 2 81 -11z m562 2 c15 -18
16 -17 -83 -15 -54 1 -68 -2 -73 -15 -6 -14 -9 -12 -19 7 -6 13 -10 26 -8 31
2 4 42 7 87 7 62 0 87 -4 96 -15z m-1210 -5 c0 -5 -4 -10 -9 -10 -6 0 -13 5
-16 10 -3 6 1 10 9 10 9 0 16 -4 16 -10z m1277 -40 c1 -13 -4 -20 -15 -20 -9
0 -28 -3 -41 -7 -19 -5 -22 -2 -19 13 2 13 15 21 38 25 19 4 35 7 35 8 1 0 1
-8 2 -19z m-684 -84 c-3 -13 0 -27 7 -31 8 -5 6 -11 -7 -21 -23 -17 -53 -18
-54 -1 0 6 -3 33 -5 60 -3 34 -1 47 8 47 7 0 20 10 28 23 14 22 14 21 21 -16
3 -21 4 -49 2 -61z m563 84 c8 0 14 -6 14 -14 0 -16 -51 -29 -64 -16 -14 14 2
43 20 36 9 -3 22 -6 30 -6z m-861 -20 c3 -11 15 -20 25 -20 24 0 31 -11 23
-39 -8 -33 -35 -22 -46 19 -5 19 -13 41 -19 48 -7 8 -7 12 0 12 6 0 14 -9 17
-20z m583 -3 c2 -10 -3 -17 -12 -17 -10 0 -16 9 -16 21 0 24 23 21 28 -4z
m-935 -62 c-6 -18 -19 -19 -29 -4 -7 12 15 31 28 23 4 -3 5 -11 1 -19z m552 5
c3 -5 -1 -10 -9 -10 -9 0 -16 5 -16 10 0 6 4 10 9 10 6 0 13 -4 16 -10z m565
-14 c0 -8 -4 -17 -9 -21 -12 -7 -24 12 -16 25 9 15 25 12 25 -4z m161 -16 c6
0 8 4 4 9 -8 14 14 24 28 13 18 -15 29 -15 38 0 6 9 9 9 9 1 0 -6 9 -10 20 -8
11 2 20 -1 20 -7 0 -5 -7 -7 -16 -4 -13 5 -14 4 -6 -7 9 -10 8 -14 -3 -14 -8
0 -15 7 -16 16 0 12 -3 11 -9 -4 l-9 -20 0 20 c-1 15 -3 17 -10 6 -7 -11 -11
-10 -21 5 -9 16 -11 16 -6 2 8 -26 -5 -28 -42 -8 -20 11 -28 20 -20 23 7 2 17
-2 21 -9 4 -8 13 -14 18 -14z m-813 -49 c3 -43 -22 -77 -34 -47 -3 9 -4 25 -1
36 3 11 1 23 -4 26 -13 8 -4 19 18 21 14 1 19 -7 21 -36z m-104 -32 c-12 -20
-24 -7 -24 29 l0 37 15 -29 c8 -15 12 -32 9 -37z m926 27 c0 -3 -9 -6 -20 -6
-19 0 -27 20 -14 33 6 6 34 -16 34 -27z m-802 -1 c-3 -3 -9 2 -12 12 -6 14 -5
15 5 6 7 -7 10 -15 7 -18z m637 -40 c0 -61 -20 -71 -28 -14 -6 47 0 72 17 66
6 -2 11 -25 11 -52z m75 -11 c0 -20 -16 -42 -24 -33 -2 2 -6 24 -10 48 -7 45
-7 45 14 26 11 -10 20 -28 20 -41z m-797 26 c3 -11 1 -20 -4 -20 -5 0 -9 9 -9
20 0 11 2 20 4 20 2 0 6 -9 9 -20z m227 7 c0 -7 -9 -18 -20 -25 -17 -10 -20
-10 -20 6 0 10 3 22 7 25 11 12 33 8 33 -6z m603 -7 c-3 -11 -9 -20 -14 -20
-5 0 -9 9 -9 20 0 11 6 20 14 20 9 0 12 -7 9 -20z m-1633 -10 c0 -5 -4 -10
-10 -10 -5 0 -10 5 -10 10 0 6 5 10 10 10 6 0 10 -4 10 -10z m925 -23 c-4 -8
-22 -17 -40 -19 -26 -3 -32 -1 -24 8 6 7 16 11 24 8 7 -3 19 1 26 9 17 18 22
16 14 -6z m-155 -37 c-12 -12 -25 -18 -31 -14 -6 3 -16 -2 -23 -11 -12 -17
-13 -17 -19 4 -6 26 15 40 61 41 l32 0 -20 -20z m-755 -10 c3 -5 1 -10 -4 -10
-6 0 -11 5 -11 10 0 6 2 10 4 10 3 0 8 -4 11 -10z m631 -34 c-7 14 21 27 29
13 10 -16 -5 -49 -23 -49 -9 0 -23 12 -29 27 -19 40 -15 51 8 23 11 -14 18
-20 15 -14z m-726 14 c0 -5 -4 -10 -10 -10 -5 0 -10 5 -10 10 0 6 5 10 10 10
6 0 10 -4 10 -10z m951 -18 c-6 -11 -8 -22 -6 -26 3 -3 0 -2 -6 3 -7 6 -7 15
2 29 16 26 24 21 10 -6z m379 -2 c0 -5 -2 -10 -4 -10 -3 0 -8 5 -11 10 -3 6
-1 10 4 10 6 0 11 -4 11 -10z m-640 -21 c0 -5 -4 -9 -10 -9 -5 0 -10 7 -10 16
0 8 5 12 10 9 6 -3 10 -10 10 -16z m95 11 c3 -5 1 -10 -4 -10 -6 0 -11 5 -11
10 0 6 2 10 4 10 3 0 8 -4 11 -10z m299 -6 c8 -22 5 -24 -22 -17 -12 3 -22 12
-22 19 0 20 37 17 44 -2z m176 2 c0 -2 -7 -6 -15 -10 -8 -3 -15 -1 -15 4 0 6
7 10 15 10 8 0 15 -2 15 -4z m-90 -26 c0 -13 -5 -18 -14 -14 -8 3 -12 12 -9
20 8 21 23 17 23 -6z m-1060 6 c0 -3 -4 -8 -10 -11 -5 -3 -10 -1 -10 4 0 6 5
11 10 11 6 0 10 -2 10 -4z m790 -31 c0 -8 6 -15 13 -18 6 -2 8 -8 4 -13 -11
-11 -61 41 -52 55 8 15 35 -4 35 -24z m-750 5 c0 -5 -7 -10 -16 -10 -8 0 -12
5 -9 10 3 6 10 10 16 10 5 0 9 -4 9 -10z m694 -15 c5 -14 -20 -35 -43 -35 -18
0 -12 38 7 43 29 8 30 8 36 -8z m214 -24 c0 -17 -3 -33 -8 -36 -8 -5 -21 55
-13 68 9 15 20 -3 21 -32z m-308 19 c0 -5 -2 -10 -4 -10 -3 0 -8 5 -11 10 -3
6 -1 10 4 10 6 0 11 -4 11 -10z m-40 -29 c0 -5 -7 -11 -15 -15 -15 -5 -20 5
-8 17 9 10 23 9 23 -2z m-70 -10 c0 -17 -18 -21 -24 -6 -3 9 0 15 9 15 8 0 15
-4 15 -9z m150 -38 c0 5 5 5 10 2 6 -4 8 -11 4 -16 -7 -12 -34 8 -34 25 0 6 5
4 10 -4 5 -8 10 -11 10 -7z m-170 0 c0 -5 -5 -15 -10 -23 -8 -12 -10 -11 -10
8 0 12 5 22 10 22 6 0 10 -3 10 -7z m-1469 -26 c-13 -13 -26 -3 -16 12 3 6 11
8 17 5 6 -4 6 -10 -1 -17z m1554 14 c3 -5 1 -12 -4 -15 -5 -3 -11 1 -15 9 -6
16 9 21 19 6z m228 -16 c-3 -9 -8 -14 -10 -11 -3 3 -2 9 2 15 9 16 15 13 8 -4z
m84 9 c-3 -4 -2 -15 4 -26 15 -27 6 -32 -19 -10 -16 14 -18 22 -10 30 7 7 16
12 22 12 5 0 6 -3 3 -6z m-1547 -67 c4 -40 10 -54 26 -61 18 -8 20 -16 16 -60
-3 -28 -10 -54 -16 -58 -8 -5 -8 -10 0 -18 18 -18 -10 -63 -56 -89 l-40 -22
-21 20 c-20 19 -21 23 -9 65 7 25 10 51 7 59 -3 8 -1 20 4 28 7 11 9 10 9 -4
0 -10 4 -16 9 -13 5 3 12 -11 16 -32 4 -20 12 -40 18 -44 9 -6 9 -8 0 -8 -7 0
-13 -7 -13 -15 0 -8 8 -15 18 -15 15 0 18 9 18 63 0 43 4 62 12 62 15 0 32 24
32 44 0 11 -5 10 -20 -4 -19 -17 -20 -17 -20 1 0 10 -7 32 -15 48 -11 21 -12
32 -4 42 6 7 10 21 9 31 -4 30 0 47 7 39 4 -4 10 -31 13 -59z m1433 56 c-7 -2
-13 -23 -14 -46 -1 -38 -1 -39 -9 -15 -11 36 -2 68 19 67 10 0 11 -2 4 -6z
m-949 -35 c-3 -4 -9 -8 -15 -8 -5 0 -9 4 -9 8 0 5 7 9 15 9 8 0 12 -4 9 -9z
m-954 -12 c6 -8 19 -12 28 -9 15 6 15 5 3 -10 -7 -9 -21 -17 -31 -17 -22 0
-44 25 -35 40 9 14 20 13 35 -4z m1808 -7 c-16 -11 -28 -29 -28 -40 0 -12 -7
-19 -20 -19 -11 0 -20 3 -20 8 1 11 33 45 55 59 33 20 42 14 13 -8z m-1588 2
c0 -15 -29 -33 -41 -25 -9 5 -7 11 6 21 22 15 35 17 35 4z m1495 -20 c-8 -26
-21 -27 -28 -2 -3 13 1 21 12 24 22 5 24 2 16 -22z m-1845 9 c0 -5 -7 -10 -16
-10 -8 0 -12 5 -9 10 3 6 10 10 16 10 5 0 9 -4 9 -10z m460 -21 c0 -12 -29
-24 -37 -16 -3 4 -3 13 0 21 6 16 37 11 37 -5z m-444 -16 c-10 -10 -19 5 -10
18 6 11 8 11 12 0 2 -7 1 -15 -2 -18z m1944 17 c0 -5 -5 -10 -11 -10 -5 0 -7
5 -4 10 3 6 8 10 11 10 2 0 4 -4 4 -10z m483 -6 c10 -10 -12 -44 -28 -44 -22
0 -27 17 -9 34 17 17 27 20 37 10z m251 -26 c10 -10 10 -16 -4 -31 -10 -10
-27 -19 -38 -20 -11 0 -26 -13 -33 -27 -7 -15 -13 -20 -16 -12 -6 15 47 80 65
81 7 1 10 6 7 11 -9 14 3 13 19 -2z m-2516 -32 c8 -16 19 -25 27 -22 7 2 15
-5 19 -17 9 -35 7 -45 -8 -43 -25 3 -47 29 -44 50 2 15 -3 22 -18 24 -16 2
-20 8 -17 23 7 26 25 19 41 -15z m339 2 c-3 -7 -5 -2 -5 12 0 14 2 19 5 13 2
-7 2 -19 0 -25z m1539 12 c17 0 20 -65 3 -76 -7 -4 -9 0 -5 12 3 11 -1 32 -9
48 -8 15 -15 31 -14 35 0 3 3 0 6 -6 2 -7 11 -13 19 -13z m-1966 0 c0 -5 -2
-10 -4 -10 -3 0 -8 5 -11 10 -3 6 -1 10 4 10 6 0 11 -4 11 -10z m1853 -11 c10
-11 16 -23 13 -27 -7 -6 -46 27 -46 40 0 14 15 9 33 -13z m-1119 -10 c3 1 6
-1 6 -4 0 -3 -2 -5 -5 -5 -3 0 -9 0 -15 0 -5 0 -10 8 -10 18 0 13 2 14 9 4 4
-8 11 -13 15 -13z m-564 1 c0 -5 -5 -10 -11 -10 -5 0 -7 5 -4 10 3 6 8 10 11
10 2 0 4 -4 4 -10z m2146 -69 c-14 -16 -23 -18 -37 -10 -24 12 -25 45 -1 58
13 7 22 5 36 -9 19 -19 19 -20 2 -39z m-188 15 c3 -12 -1 -17 -10 -14 -7 3
-15 13 -16 22 -3 12 1 17 10 14 7 -3 15 -13 16 -22z m122 4 c0 -4 -7 -13 -15
-20 -22 -18 -43 2 -24 23 14 14 39 12 39 -3z m-2194 -57 c-8 -8 -12 -3 -21 27
l-7 25 17 -23 c9 -13 14 -26 11 -29z m2007 32 c4 -8 2 -17 -3 -20 -6 -4 -10 3
-10 14 0 25 6 27 13 6z m-273 -25 c8 -5 11 -10 5 -10 -5 0 -17 5 -25 10 -8 5
-10 10 -5 10 6 0 17 -5 25 -10z m247 -22 c-3 -8 -6 -5 -6 6 -1 11 2 17 5 13 3
-3 4 -12 1 -19z m-1740 -25 c1 -21 -6 -53 -14 -71 -12 -26 -13 -35 -3 -47 7
-8 8 -15 3 -15 -15 0 -33 23 -33 42 0 22 -27 66 -55 90 -11 10 -15 17 -9 18 7
0 26 -15 44 -32 l32 -33 -4 33 c-2 21 2 36 12 42 23 15 26 12 27 -27z m279 10
c-10 -11 -36 -12 -36 -2 0 5 10 9 22 9 12 0 18 -3 14 -7z m131 -18 c0 -8 -4
-12 -9 -9 -4 3 -8 9 -8 15 0 5 4 9 8 9 5 0 9 -7 9 -15z m1733 -41 c-12 -21
-16 -23 -25 -11 -5 7 -17 12 -25 9 -8 -2 -2 8 14 22 36 32 57 21 36 -20z
m-2106 21 c-4 -8 -11 -12 -16 -9 -6 4 -5 10 3 15 19 12 19 11 13 -6z m1666 7
c0 -5 -11 -8 -25 -8 -35 2 -39 11 -5 14 17 1 30 -2 30 -6z m240 4 c0 -11 -19
-15 -25 -6 -3 5 1 10 9 10 9 0 16 -2 16 -4z m-167 -23 c-3 -7 2 -13 11 -13 16
0 23 -19 9 -21 -17 -3 -63 -5 -63 -2 0 1 5 13 11 26 11 24 41 34 32 10z m-426
1 c-3 -3 -12 -4 -19 -1 -8 3 -5 6 6 6 11 1 17 -2 13 -5z m313 -14 c0 -5 -5
-10 -11 -10 -5 0 -7 5 -4 10 3 6 8 10 11 10 2 0 4 -4 4 -10z m185 -1 c4 -6 5
-12 2 -15 -7 -7 -37 7 -37 17 0 13 27 11 35 -2z m-137 -49 c7 -18 7 -32 1 -35
-5 -4 -9 3 -9 14 0 11 -4 23 -10 26 -12 8 -13 25 -1 25 5 0 14 -13 19 -30z
m292 -11 c-10 -17 -30 -27 -30 -13 0 15 22 44 31 39 5 -4 5 -13 -1 -26z m-115
0 c6 -19 0 -38 -9 -28 -10 12 -16 49 -7 49 5 0 13 -9 16 -21z m332 -33 c-7
-17 -57 -22 -57 -6 0 6 6 10 14 10 8 0 17 8 20 17 5 12 10 13 18 5 6 -6 8 -18
5 -26z m-687 -6 c0 -5 -4 -10 -10 -10 -5 0 -10 5 -10 10 0 6 5 10 10 10 6 0
10 -4 10 -10z m-240 -10 c0 -5 -4 -10 -10 -10 -5 0 -10 5 -10 10 0 6 5 10 10
10 6 0 10 -4 10 -10z"/>
<path d="M523 1484 c-4 -10 -36 -67 -70 -127 -63 -106 -69 -127 -34 -127 9 0
22 -5 28 -11 6 -6 16 -8 22 -5 17 11 13 53 -5 60 -14 5 -11 13 20 43 20 20 36
41 36 46 0 5 14 22 31 38 l30 28 -25 37 c-23 33 -26 35 -33 18z"/>
<path d="M578 1381 c-8 -11 -26 -25 -41 -32 -15 -7 -27 -19 -27 -27 0 -12 11
-13 62 -8 35 4 65 9 67 11 2 2 -4 11 -13 20 -9 9 -16 23 -16 30 0 23 -18 26
-32 6z"/>
<path d="M325 1285 c-29 -25 -29 -25 -6 -23 13 2 30 13 39 26 19 29 4 28 -33
-3z"/>
<path d="M97 1031 c-37 -15 -70 -31 -74 -34 -9 -10 80 -8 92 1 13 10 60 62 54
61 -2 0 -34 -13 -72 -28z"/>
<path d="M1434 1014 c-15 -6 -5 -67 14 -81 28 -23 45 -16 39 16 -3 15 -1 33 5
39 7 7 10 13 7 15 -8 8 -54 15 -65 11z"/>
<path d="M1536 1011 c-3 -4 -3 -24 1 -44 5 -32 8 -35 24 -26 11 5 19 21 19 35
0 33 34 29 38 -4 3 -19 9 -23 35 -20 27 2 33 8 35 31 3 25 1 27 -35 28 -21 1
-55 3 -75 4 -21 2 -40 0 -42 -4z"/>
<path d="M778 1002 c-25 -3 -27 -6 -21 -35 3 -18 10 -36 15 -42 14 -15 43 8
46 39 2 14 9 26 16 26 15 0 26 -63 26 -149 0 -31 5 -72 10 -92 9 -32 13 -35
45 -35 37 0 45 15 21 35 -10 8 -16 9 -21 1 -17 -28 -25 -2 -25 85 l0 95 33 2
c17 1 43 2 57 2 19 1 25 8 31 34 3 17 6 32 5 32 -7 3 -218 4 -238 2z"/>
<path d="M1049 1003 c-2 -28 3 -178 8 -225 9 -89 23 -58 23 52 0 54 4 100 9
102 4 2 11 20 15 41 7 36 6 37 -24 37 -16 0 -30 -3 -31 -7z"/>
<path d="M1128 998 c5 -7 12 -24 14 -38 5 -36 45 -40 58 -6 12 33 30 33 30 0
0 -23 3 -25 33 -22 27 2 32 7 33 29 1 14 4 31 8 38 5 8 -19 11 -90 11 -76 0
-94 -3 -86 -12z"/>
<path d="M1342 973 c3 -39 24 -56 34 -26 3 10 10 26 15 35 13 26 12 28 -22 28
-29 0 -30 -2 -27 -37z"/>
<path d="M189 957 c-26 -23 -57 -50 -70 -60 -24 -17 -23 -17 39 -13 42 3 62 1
63 -7 1 -7 3 -38 4 -71 4 -70 14 -86 16 -25 1 24 2 55 3 69 1 14 7 26 16 26
32 3 35 5 20 14 -12 7 -11 12 5 30 10 11 25 18 32 16 25 -10 13 3 -33 33 -25
17 -46 31 -47 31 -1 0 -23 -19 -48 -43z"/>
<path d="M660 971 c0 -17 5 -33 10 -36 6 -3 10 -24 10 -45 0 -33 14 -61 24
-49 2 2 6 39 10 82 l7 77 -31 0 c-27 0 -30 -3 -30 -29z"/>
<path d="M563 970 c-6 -23 -33 -27 -33 -5 0 12 -17 15 -90 15 -49 0 -90 -2
-90 -4 0 -2 15 -14 34 -25 26 -17 50 -21 113 -21 49 0 84 5 92 13 11 10 13 9
8 -5 -4 -10 -4 -25 0 -34 4 -12 9 -8 19 16 23 53 19 70 -17 70 -22 0 -32 -5
-36 -20z"/>
<path d="M590 842 c0 -22 -7 -54 -16 -72 -16 -31 -16 -34 0 -46 10 -7 25 -10
33 -7 9 3 36 7 62 7 l46 1 -3 35 c-7 73 -28 97 -34 38 -3 -29 -6 -33 -33 -33
-30 0 -30 1 -33 58 -3 63 -22 79 -22 19z"/>
<path d="M991 810 c-1 -14 -4 -33 -6 -44 -4 -21 10 -64 16 -50 2 5 2 34 -2 64
-3 30 -7 44 -8 30z"/>
<path d="M1276 803 c-11 -11 -6 -23 9 -23 8 0 15 4 15 9 0 13 -16 22 -24 14z"/>
<path d="M775 790 c-8 -13 4 -32 16 -25 12 8 12 35 0 35 -6 0 -13 -4 -16 -10z"/>
<path d="M425 780 c3 -5 8 -10 11 -10 2 0 4 5 4 10 0 6 -5 10 -11 10 -5 0 -7
-4 -4 -10z"/>
<path d="M454 735 c-7 -30 -1 -40 19 -32 10 3 13 15 10 31 -7 33 -21 33 -29 1z"/>
<path d="M321 736 c-9 -10 -8 -15 2 -19 8 -3 13 3 13 14 0 23 0 23 -15 5z"/>
<path d="M0 651 c0 -17 5 -31 10 -31 6 0 10 9 10 20 0 11 0 23 1 27 0 4 -4 9
-10 11 -6 2 -11 -10 -11 -27z"/>
<path d="M240 655 c0 -10 10 -15 32 -15 30 0 31 1 12 15 -25 19 -44 19 -44 0z"/>
<path d="M432 639 c2 -7 10 -15 17 -17 8 -3 12 1 9 9 -2 7 -10 15 -17 17 -8 3
-12 -1 -9 -9z"/>
<path d="M940 610 c0 -5 5 -10 11 -10 5 0 7 5 4 10 -3 6 -8 10 -11 10 -2 0 -4
-4 -4 -10z"/>
<path d="M745 540 c-3 -5 3 -10 14 -10 12 0 21 5 21 10 0 6 -6 10 -14 10 -8 0
-18 -4 -21 -10z"/>
</g>
</svg>
